# Blender 3.5.0
# www.blender.org
mtllib stoneOrIDunno.mtl
o Icosphere.001
v -0.019139 -0.024914 -0.687558
v -0.512047 -0.742617 -0.320728
v -0.827063 0.243501 -0.287575
v -0.027081 0.822144 -0.267703
v 0.898878 0.244039 -0.296065
v 0.498383 -0.671094 -0.279362
v -0.883024 -0.319984 0.292276
v -0.535555 0.765952 0.302303
v 0.459879 0.691830 0.171969
v 0.913172 -0.302600 0.189645
v -0.013783 -0.811579 0.276090
v -0.043992 0.004056 0.481379
v -0.465508 0.103462 -0.554183
v -0.254659 -0.425812 -0.549903
v -0.840705 -0.274813 -0.400666
v 0.014181 -0.808615 -0.361776
v 0.314283 -0.430162 -0.613235
v -0.037964 0.492417 -0.551964
v -0.497548 0.642403 -0.311781
v 0.506395 0.114054 -0.534060
v 0.479096 0.629501 -0.358291
v 0.795113 -0.205431 -0.343891
v -0.309013 -0.951058 0.000000
v 0.309013 -0.951058 0.000000
v -1.000000 0.000000 0.000000
v -0.809017 -0.587786 0.000000
v -0.309013 0.951058 0.000000
v -0.809017 0.587786 0.000000
v 0.809017 0.587786 0.000000
v 0.309013 0.951058 0.000000
v 0.809017 -0.587786 0.000000
v 1.000000 0.000000 0.000000
v -0.504861 -0.758930 0.197060
v -0.770808 0.275824 0.214576
v -0.057850 0.866400 0.227099
v 0.804418 0.282242 0.294277
v 0.482573 -0.702149 0.254503
v -0.505816 -0.116389 0.397494
v -0.037640 -0.537888 0.386867
v -0.296424 0.437995 0.462231
v 0.340267 0.418680 0.452573
v 0.469869 -0.169303 0.385515
vn -0.3190 -0.1347 -0.9381
vn -0.1302 -0.5095 -0.8506
vn -0.2138 0.2404 -0.9468
vn 0.2083 0.2551 -0.9442
vn 0.2691 0.0450 -0.9621
vn -0.1459 -0.8692 -0.4725
vn -0.8921 0.1186 -0.4360
vn -0.2324 0.7578 -0.6097
vn 0.6234 0.5974 -0.5045
vn 0.6508 -0.4945 -0.5761
vn -0.5810 -0.7996 -0.1519
vn -0.9083 0.2951 -0.2963
vn -0.0000 0.9010 -0.4339
vn 0.9487 0.3083 -0.0699
vn 0.5434 -0.7479 -0.3812
vn -0.1049 -0.2963 0.9493
vn -0.4815 0.0748 0.8733
vn 0.2873 0.6222 0.7282
vn 0.3785 -0.0944 0.9208
vn 0.1203 -0.3634 0.9238
vn 0.1254 -0.1690 0.9776
vn 0.1706 -0.2314 0.9578
vn 0.3392 -0.2170 0.9154
vn 0.1575 -0.0776 0.9845
vn 0.3121 -0.0395 0.9492
vn 0.4101 0.5600 0.7199
vn 0.0168 0.0538 0.9984
vn 0.0276 0.4691 0.8827
vn 0.0421 0.4626 0.8856
vn -0.1652 -0.0526 0.9849
vn -0.4828 0.0805 0.8720
vn -0.3561 0.1865 0.9157
vn -0.1325 -0.1718 0.9762
vn -0.2395 -0.2894 0.9267
vn -0.1866 -0.3825 0.9049
vn 0.1953 -0.7644 0.6145
vn 0.5475 -0.7536 0.3637
vn 0.6176 -0.5793 0.5319
vn 0.8603 0.0696 0.5050
vn 0.9016 0.2929 0.3183
vn 0.4901 0.6008 0.6315
vn 0.2917 0.6408 0.7101
vn -0.0000 0.9370 0.3493
vn -0.1140 0.8830 0.4553
vn -0.7882 0.2803 0.5478
vn -0.8088 0.2628 0.5261
vn -0.7958 0.2233 0.5629
vn -0.6374 -0.6417 0.4265
vn -0.5759 -0.7926 0.2004
vn -0.1793 -0.7875 0.5896
vn 0.9495 -0.3085 -0.0575
vn 0.8884 -0.2887 -0.3569
vn 0.8870 -0.1586 -0.4337
vn 0.4807 0.6616 0.5756
vn 0.5366 0.7386 -0.4081
vn 0.1859 0.7735 -0.6059
vn -0.5869 0.8078 0.0548
vn -0.5369 0.7390 -0.4069
vn -0.6531 0.5053 -0.5640
vn -0.9502 -0.3087 0.0423
vn -0.9382 -0.3048 -0.1639
vn -0.7205 -0.5730 -0.3906
vn -0.0000 -0.8926 0.4509
vn -0.0000 -0.9305 -0.3664
vn 0.3132 -0.7685 -0.5579
vn 0.5881 -0.4663 -0.6608
vn 0.5070 -0.0538 -0.8602
vn 0.5257 -0.0309 -0.8501
vn 0.4144 0.3133 -0.8545
vn 0.2553 0.3241 -0.9109
vn 0.1111 0.6468 -0.7545
vn -0.1772 0.6460 -0.7425
vn -0.3324 0.3704 -0.8674
vn -0.4699 0.3387 -0.8152
vn 0.3069 -0.6834 -0.6624
vn -0.0999 -0.4945 -0.8634
vn -0.1087 -0.2651 -0.9581
vn -0.5325 0.1938 -0.8239
vn -0.2732 -0.1166 -0.9549
vn -0.3180 -0.3724 -0.8719
vt 0.181819 0.000000
vt 0.909091 0.000000
vt 0.727273 0.000000
vt 0.545455 0.000000
vt 0.363637 0.000000
vt 0.272728 0.157461
vt 1.000000 0.157461
vt 0.090910 0.157461
vt 0.818182 0.157461
vt 0.636364 0.157461
vt 0.454546 0.157461
vt 0.181819 0.314921
vt 0.000000 0.314921
vt 0.909091 0.314921
vt 0.727273 0.314921
vt 0.545455 0.314921
vt 0.363637 0.314921
vt 0.454546 0.472382
vt 0.636364 0.472382
vt 0.818182 0.472382
vt 0.090910 0.472382
vt 0.272728 0.472382
vt 0.954545 0.078731
vt 0.136365 0.078731
vt 0.318182 0.078731
vt 0.227273 0.078731
vt 0.181819 0.157461
vt 0.363637 0.157461
vt 0.500000 0.078731
vt 0.409092 0.078731
vt 0.772727 0.078731
vt 0.863636 0.078731
vt 0.909091 0.157461
vt 0.590909 0.078731
vt 0.681818 0.078731
vt 0.727273 0.157461
vt 0.545455 0.157461
vt 0.318182 0.236191
vt 0.409092 0.236191
vt 0.136365 0.236191
vt 0.227273 0.236191
vt 0.863636 0.236191
vt 0.045455 0.236191
vt 0.954545 0.236191
vt 0.681818 0.236191
vt 0.772727 0.236191
vt 0.500000 0.236191
vt 0.590909 0.236191
vt 0.272728 0.314921
vt 0.090910 0.314921
vt 0.818182 0.314921
vt 0.636364 0.314921
vt 0.454546 0.314921
vt 0.136365 0.393651
vt 0.227273 0.393651
vt 0.409092 0.393651
vt 0.318182 0.393651
vt 0.863636 0.393651
vt 0.045455 0.393651
vt 0.681818 0.393651
vt 0.772727 0.393651
vt 0.500000 0.393651
vt 0.590909 0.393651
s 0
f 1/1/1 14/26/1 13/24/1
f 2/6/2 14/25/2 16/28/2
f 1/2/3 13/23/3 18/32/3
f 1/3/4 18/31/4 20/35/4
f 1/4/5 20/34/5 17/29/5
f 2/6/6 16/28/6 23/38/6
f 3/8/7 15/27/7 25/40/7
f 4/9/8 19/33/8 27/42/8
f 5/10/9 21/36/9 29/45/9
f 6/11/10 22/37/10 31/47/10
f 2/6/11 23/38/11 26/41/11
f 3/8/12 25/40/12 28/43/12
f 4/9/13 27/42/13 30/46/13
f 5/10/14 29/45/14 32/48/14
f 6/11/15 31/47/15 24/39/15
f 7/12/16 33/49/16 38/55/16
f 8/13/17 34/50/17 40/59/17
f 9/15/18 35/51/18 41/61/18
f 10/16/19 36/52/19 42/63/19
f 11/17/20 37/53/20 39/56/20
f 39/56/21 42/62/21 12/18/21
f 39/56/22 37/53/22 42/62/22
f 37/53/23 10/16/23 42/62/23
f 42/63/24 41/60/24 12/19/24
f 42/63/25 36/52/25 41/60/25
f 36/52/26 9/15/26 41/60/26
f 41/61/27 40/58/27 12/20/27
f 41/61/28 35/51/28 40/58/28
f 35/51/29 8/14/29 40/58/29
f 40/59/30 38/54/30 12/21/30
f 40/59/31 34/50/31 38/54/31
f 34/50/32 7/12/32 38/54/32
f 38/55/33 39/57/33 12/22/33
f 38/55/34 33/49/34 39/57/34
f 33/49/35 11/17/35 39/57/35
f 24/39/36 37/53/36 11/17/36
f 24/39/37 31/47/37 37/53/37
f 31/47/38 10/16/38 37/53/38
f 32/48/39 36/52/39 10/16/39
f 32/48/40 29/45/40 36/52/40
f 29/45/41 9/15/41 36/52/41
f 30/46/42 35/51/42 9/15/42
f 30/46/43 27/42/43 35/51/43
f 27/42/44 8/14/44 35/51/44
f 28/43/45 34/50/45 8/13/45
f 28/43/46 25/40/46 34/50/46
f 25/40/47 7/12/47 34/50/47
f 26/41/48 33/49/48 7/12/48
f 26/41/49 23/38/49 33/49/49
f 23/38/50 11/17/50 33/49/50
f 31/47/51 32/48/51 10/16/51
f 31/47/52 22/37/52 32/48/52
f 22/37/53 5/10/53 32/48/53
f 29/45/54 30/46/54 9/15/54
f 29/45/55 21/36/55 30/46/55
f 21/36/56 4/9/56 30/46/56
f 27/42/57 28/44/57 8/14/57
f 27/42/58 19/33/58 28/44/58
f 19/33/59 3/7/59 28/44/59
f 25/40/60 26/41/60 7/12/60
f 25/40/61 15/27/61 26/41/61
f 15/27/62 2/6/62 26/41/62
f 23/38/63 24/39/63 11/17/63
f 23/38/64 16/28/64 24/39/64
f 16/28/65 6/11/65 24/39/65
f 17/29/66 22/37/66 6/11/66
f 17/29/67 20/34/67 22/37/67
f 20/34/68 5/10/68 22/37/68
f 20/35/69 21/36/69 5/10/69
f 20/35/70 18/31/70 21/36/70
f 18/31/71 4/9/71 21/36/71
f 18/32/72 19/33/72 4/9/72
f 18/32/73 13/23/73 19/33/73
f 13/23/74 3/7/74 19/33/74
f 16/28/75 17/30/75 6/11/75
f 16/28/76 14/25/76 17/30/76
f 14/25/77 1/5/77 17/30/77
f 13/24/78 15/27/78 3/8/78
f 13/24/79 14/26/79 15/27/79
f 14/26/80 2/6/80 15/27/80
